HIERARCHY
ROOT Hips
{
	OFFSET 0.00000 0.00000 0.00000
	CHANNELS 6 Xposition Yposition Zposition Zrotation Yrotation Xrotation 
	JOINT LHipJoint
	{
		OFFSET 0 0 0
		CHANNELS 3 Zrotation Yrotation Xrotation
		JOINT LeftHip
		{
			OFFSET 1.28858 -1.83292 1.03970
			CHANNELS 3 Zrotation Yrotation Xrotation
			JOINT LeftKnee
			{
				OFFSET 2.47846 -6.80952 0.00000
				CHANNELS 3 Zrotation Yrotation Xrotation
				JOINT LeftAnkle
				{
					OFFSET 2.75274 -7.56311 0.00000
					CHANNELS 3 Zrotation Yrotation Xrotation
					JOINT LeftToe
					{
						OFFSET 0.12848 -0.35301 1.68223
						CHANNELS 3 Zrotation Yrotation Xrotation
						End Site
						{
							OFFSET 0.00000 -0.00000 0.87311
						}
					}
				}
			}
		}
	}
	JOINT RHipJoint
	{
		OFFSET 0 0 0
		CHANNELS 3 Zrotation Yrotation Xrotation
		JOINT RightHip
		{
			OFFSET -1.31183 -1.83292 1.03970
			CHANNELS 3 Zrotation Yrotation Xrotation
			JOINT RightKnee
			{
				OFFSET -2.44740 -6.72417 0.00000
				CHANNELS 3 Zrotation Yrotation Xrotation
				JOINT RightAnkle
				{
					OFFSET -2.67343 -7.34519 0.00000
					CHANNELS 3 Zrotation Yrotation Xrotation
					JOINT RightToe
					{
						OFFSET -0.16914 -0.46471 1.77626
						CHANNELS 3 Zrotation Yrotation Xrotation
						End Site
						{
							OFFSET -0.00000 -0.00000 0.92777
						}
					}
				}
			}
		}
	}
	JOINT lowerback
	{
		OFFSET 0 0 0
		CHANNELS 3 Zrotation Yrotation Xrotation
		JOINT Chest
		{
			OFFSET 0.01249 2.14252 0.03842
			CHANNELS 3 Zrotation Yrotation Xrotation
			JOINT Chest2
			{
				OFFSET -0.02957 2.14199 -0.03751
				CHANNELS 3 Zrotation Yrotation Xrotation
				JOINT lowerneck
				{
					OFFSET 0 0 0
					CHANNELS 3 Zrotation Yrotation Xrotation
					JOINT Neck
					{
						OFFSET -0.01678 1.65709 -0.05476
						CHANNELS 3 Zrotation Yrotation Xrotation
						JOINT Head
						{
							OFFSET 0.07912 1.58331 -0.11843
							CHANNELS 3 Zrotation Yrotation Xrotation
							End Site
							{
								OFFSET 0.03298 1.73940 -0.04271
							}
						}
					}
				}
				JOINT LeftCollar
				{
					OFFSET 0 0 0
					CHANNELS 3 Zrotation Yrotation Xrotation
					JOINT LeftShoulder
					{
						OFFSET 3.39556 1.16496 0.08673
CHANNELS 3 Zrotation Xrotation Yrotation
						JOINT LeftElbow
						{
OFFSET 0 -5.239100 -0.000000
CHANNELS 3 Zrotation Xrotation Yrotation
							JOINT LeftWrist
							{
OFFSET 0 -3.314670 0.000000
CHANNELS 3 Zrotation Xrotation Yrotation
								JOINT lhand
								{
									OFFSET 0 0 0
CHANNELS 3 Zrotation Xrotation Yrotation
									JOINT LFingers
									{
OFFSET 0 -0.965900 0.000000
CHANNELS 3 Zrotation Xrotation Yrotation
										End Site
										{
OFFSET 0 -0.778730 0.000000
										}
									}
								}
								JOINT LThumb
								{
OFFSET 0 0.000000 0.000000
CHANNELS 3 Zrotation Xrotation Yrotation
									End Site
									{
OFFSET 0 -0.790620 0.790620
									}
								}
							}
						}
					}
				}
				JOINT RightCollar
				{
					OFFSET 0 0 0
					CHANNELS 3 Zrotation Yrotation Xrotation
					JOINT RightShoulder
					{
						OFFSET -3.27193 1.31331 0.33940
CHANNELS 3 Zrotation Xrotation Yrotation
						JOINT RightElbow
						{
OFFSET 0 -5.302520 0.000000
CHANNELS 3 Zrotation Xrotation Yrotation
							JOINT RightWrist
							{
OFFSET 0 -3.678750 0.000000
CHANNELS 3 Zrotation Xrotation Yrotation
								JOINT rhand
								{
									OFFSET 0 0 0
CHANNELS 3 Zrotation Xrotation Yrotation
									JOINT RFingers
									{
OFFSET 0 -0.594810 0.000000
CHANNELS 3 Zrotation Xrotation Yrotation
										End Site
										{
OFFSET 0 -0.479550 0.000000
										}
									}
								}
								JOINT RThumb
								{
OFFSET 0 0.000000 0.000000
CHANNELS 3 Zrotation Xrotation Yrotation
									End Site
									{
OFFSET 0 -0.486870 0.486870
									}
								}
							}
						}
					}
				}
			}
		}
	}
}
MOTION
Frames: 9
Frame Time: 0.008333333333333333
7.845300 17.906200 -32.305400 -4.377400 -10.849800 0.816700 0.000000 0.000000 0.000000 -5.490800 -4.509500 -8.415900 0.003000 0.352400 0.968400 -0.191700 8.920800 -8.002600 3.942400 12.083300 36.027300 0.000000 0.000000 0.000000 27.509900 -1.195700 7.518400 -0.055600 -1.522200 4.186900 -1.446200 -10.751400 -28.866700 -9.809800 -17.301500 58.850700 5.689900 1.013100 -5.728100 0.087100 0.929500 1.127800 -3.015700 0.608200 4.482900 -1.491900 -2.354800 1.102500 4.808200 -3.362200 5.339400 1.729400 -1.633800 1.598400 0.000000 0.000000 0.000000 6.257000 0.319400 -29.921700 8.998500 -15.158000 1.199700 9.292400 -6.204400 11.103300 0.000000 0.000000 0.000000 -7.125000 0.000000 0.000000 -12.498300 18.872900 -7.974900 0.000000 0.000000 0.000000 -3.454000 9.375600 22.072300 -15.158800 -24.366800 -3.291200 -7.240300 4.517900 37.510100 0.000000 0.000000 0.000000 7.125000 0.000000 -0.000000 34.344500 64.506300 -17.168500
7.838266 17.900950 -32.302913 -4.396927 -11.388186 0.930866 0.000000 0.000000 0.000000 -5.361011 -4.505520 -8.236682 0.001811 0.272933 0.749811 -0.182883 9.033166 -8.580043 3.938415 12.077929 36.008211 0.000000 0.000000 0.000000 27.489279 -1.073903 7.379236 -0.060445 -1.585867 4.362531 -1.441764 -10.446107 -28.601516 -6.066445 -14.419213 45.109659 5.698654 1.226319 -5.793254 0.073544 1.212947 1.016025 -3.006692 0.745363 4.430630 -1.530749 -2.347495 1.449155 5.020088 -3.346371 4.954121 1.808241 -1.632932 1.420533 0.000000 0.000000 0.000000 6.307152 0.628742 -29.831469 8.761269 -14.779105 1.138494 8.958667 -5.909800 10.894116 0.000000 0.000000 0.000000 -7.125000 0.000000 0.000000 -12.741818 19.093845 -8.073816 0.000000 0.000000 0.000000 -3.412401 9.455491 21.801671 -15.102666 -24.288931 -3.268071 -7.124688 4.659137 37.189377 0.000000 0.000000 0.000000 7.125000 0.000000 0.000000 34.053008 64.215636 -16.778482
7.833583 17.890125 -32.301106 -4.307368 -11.849394 1.234218 0.000000 0.000000 0.000000 -5.337149 -4.496389 -8.421671 0.001500 0.253014 0.695023 -0.173315 9.106346 -9.048444 3.999167 12.159321 36.297864 0.000000 0.000000 0.000000 27.349272 -0.907136 7.005662 -0.065006 -1.645610 4.527117 -1.431399 -10.128171 -28.288089 -1.633559 -8.020436 22.798377 5.613771 1.394566 -6.085702 0.031112 1.432443 0.809885 -2.978302 0.847328 4.400126 -1.451420 -2.423765 1.823241 4.958014 -3.438934 4.777385 1.777206 -1.685968 1.299971 0.000000 0.000000 0.000000 6.299975 0.885547 -29.401767 8.558791 -14.454522 1.087326 8.763270 -5.544261 10.880749 0.000000 0.000000 0.000000 -7.125000 0.000000 0.000000 -12.878518 19.115259 -8.158697 0.000000 0.000000 0.000000 -3.443441 9.661569 21.791433 -15.073346 -24.248217 -3.255982 -7.190222 4.690556 37.036683 0.000000 0.000000 0.000000 7.125000 0.000000 0.000000 33.793338 64.109732 -16.553304
7.831324 17.873179 -32.300666 -4.203873 -11.907406 1.721153 0.000000 0.000000 0.000000 -5.348034 -4.661596 -9.041135 0.002267 0.308716 0.848252 -0.168483 9.116631 -9.216243 4.021817 12.189343 36.405145 0.000000 0.000000 0.000000 27.211616 -0.792421 6.438753 -0.066717 -1.666257 4.584220 -1.415879 -10.041883 -28.115246 -0.247013 -3.171541 8.758922 5.475735 1.394282 -6.571519 0.037276 1.419040 0.538659 -2.890044 0.830976 4.385769 -1.511696 -2.435745 2.067312 4.879938 -3.454086 4.803796 1.765009 -1.698515 1.266348 0.000000 0.000000 0.000000 6.200690 1.335590 -29.017483 8.520945 -14.393733 1.077947 8.468753 -5.525419 10.893668 0.000000 0.000000 0.000000 -7.125000 0.000000 0.000000 -13.082561 19.114733 -8.295129 0.000000 0.000000 0.000000 -3.584434 9.914745 21.974952 -15.074077 -24.249162 -3.256284 -7.317762 4.751820 37.344239 0.000000 0.000000 0.000000 7.125000 0.000000 0.000000 34.051891 64.393533 -16.917534
7.828187 17.863753 -32.298866 -4.123274 -11.831750 1.954376 0.000000 0.000000 0.000000 -5.390763 -4.800856 -9.375380 0.002878 0.347276 0.954304 -0.166955 9.101902 -9.230915 4.038768 12.211862 36.485617 0.000000 0.000000 0.000000 27.117573 -0.802173 6.202954 -0.065199 -1.647590 4.532694 -1.407376 -10.038174 -28.053554 -0.169178 -2.649757 7.305181 5.342619 1.324874 -6.847928 0.080841 1.321310 0.417219 -2.777046 0.776737 4.401225 -1.679417 -2.417248 2.051738 4.826053 -3.434181 4.937785 1.776952 -1.690375 1.313098 0.000000 0.000000 0.000000 6.092264 1.847017 -28.925564 8.645947 -14.594449 1.109248 8.536056 -5.899727 10.996323 0.000000 0.000000 0.000000 -7.125000 0.000000 0.000000 -13.029752 19.010952 -8.290767 0.000000 0.000000 0.000000 -3.753326 10.033943 22.135419 -15.074887 -24.250353 -3.256677 -7.343561 4.852343 37.610370 0.000000 0.000000 0.000000 7.125000 0.000000 0.000000 34.368546 64.615434 -17.268094
7.822358 17.861874 -32.299690 -4.103193 -11.824962 1.957607 0.000000 0.000000 0.000000 -5.393067 -4.776604 -9.406225 0.003036 0.355922 0.977902 -0.165691 9.070406 -9.200846 4.062488 12.243042 36.597260 0.000000 0.000000 0.000000 27.124662 -0.814060 6.242048 -0.063791 -1.629768 4.483531 -1.416877 -9.970612 -28.068789 -0.189278 -2.801685 7.727004 5.280635 1.308360 -6.881141 0.123139 1.301202 0.390047 -2.700122 0.763884 4.387116 -1.871045 -2.428296 2.071635 4.828761 -3.455139 5.042312 1.811619 -1.703382 1.347936 0.000000 0.000000 0.000000 6.038957 2.255472 -29.201369 8.819848 -14.872830 1.153445 8.721569 -6.431244 10.987308 0.000000 0.000000 0.000000 -7.125000 0.000000 0.000000 -12.901412 19.012077 -8.204473 0.000000 0.000000 0.000000 -3.845011 10.107719 22.136031 -15.050327 -24.216138 -3.246566 -7.230977 4.857596 37.554812 0.000000 0.000000 0.000000 7.125000 0.000000 0.000000 34.411903 64.539648 -17.232448
7.816280 17.860883 -32.301951 -4.124044 -11.823065 1.963042 0.000000 0.000000 0.000000 -5.341219 -4.747021 -9.434679 0.003200 0.365354 1.003893 -0.165317 9.050025 -9.168353 4.039326 12.212535 36.488154 0.000000 0.000000 0.000000 27.188870 -0.786835 6.265491 -0.063333 -1.624081 4.467777 -1.417680 -10.001713 -28.097546 -0.203036 -2.901204 8.003842 5.317917 1.358643 -6.892586 0.109397 1.365805 0.362636 -2.728393 0.795994 4.371968 -1.952916 -2.495534 2.135314 4.883175 -3.551354 5.114871 1.843691 -1.752335 1.366843 0.000000 0.000000 0.000000 6.078511 2.607693 -29.578419 9.025305 -15.200760 1.206748 8.862413 -6.908322 11.030563 0.000000 0.000000 0.000000 -7.125000 0.000000 0.000000 -12.801123 18.963418 -8.151534 0.000000 0.000000 0.000000 -3.781075 10.180778 21.959839 -14.990212 -24.132414 -3.221951 -7.125460 4.835812 37.344840 0.000000 0.000000 0.000000 7.125000 0.000000 0.000000 34.249808 64.341402 -16.985877
7.811216 17.861800 -32.304599 -4.240441 -11.814505 1.936925 0.000000 0.000000 0.000000 -5.174339 -4.744782 -9.399016 0.003331 0.373189 1.025514 -0.164154 9.033420 -9.168337 4.018602 12.185108 36.389995 0.000000 0.000000 0.000000 27.367673 -0.731337 6.346509 -0.063008 -1.619633 4.455505 -1.418908 -10.078911 -28.164640 -0.205693 -2.920254 8.056869 5.497794 1.447443 -6.842482 0.072409 1.473233 0.390876 -2.856569 0.854727 4.388821 -1.847885 -2.597042 2.013665 4.873507 -3.688259 5.193392 1.819332 -1.816396 1.415370 0.000000 0.000000 0.000000 6.187981 2.788927 -29.893685 9.216295 -15.504467 1.257283 9.016148 -7.374535 11.196269 0.000000 0.000000 0.000000 -7.125000 0.000000 0.000000 -12.685182 18.793355 -8.123194 0.000000 0.000000 0.000000 -3.586530 10.143055 21.617219 -14.894501 -23.998910 -3.182886 -7.030802 4.901757 37.048944 0.000000 0.000000 0.000000 7.125000 0.000000 0.000000 33.972249 64.076346 -16.624934
7.806597 17.861288 -32.307914 -4.367533 -11.776087 1.949345 0.000000 0.000000 0.000000 -4.994731 -4.761273 -9.432143 0.003678 0.392403 1.078250 -0.163490 9.021319 -9.164600 4.053132 12.230739 36.553321 0.000000 0.000000 0.000000 27.560688 -0.676528 6.392295 -0.061910 -1.605776 4.417321 -1.417788 -10.152279 -28.212488 -0.199497 -2.876321 7.934567 5.704171 1.522281 -6.854189 0.032928 1.555782 0.425967 -3.003795 0.903130 4.447097 -1.727696 -2.679499 1.924538 4.850914 -3.796606 5.203134 1.788700 -1.867201 1.434505 0.000000 0.000000 0.000000 6.310031 2.848266 -30.226878 9.376522 -15.758509 1.300508 9.140109 -7.842878 11.187084 0.000000 0.000000 0.000000 -7.125000 0.000000 0.000000 -12.599684 18.796901 -8.064662 0.000000 0.000000 0.000000 -3.390385 10.069519 21.346695 -14.788072 -23.850010 -3.139760 -6.939057 4.968347 36.847988 0.000000 0.000000 0.000000 7.125000 0.000000 0.000000 33.815867 63.888551 -16.392586
